<?xml version="1.0" encoding="utf-8"?>
<!-- Generator: Adobe Illustrator 24.1.0, SVG Export Plug-In . SVG Version: 6.00 Build 0)  -->
<svg version="1.1" id="Шар_1" xmlns="http://www.w3.org/2000/svg" xmlns:xlink="http://www.w3.org/1999/xlink" x="0px" y="0px"
	 viewBox="0 0 332.4 332.4" style="enable-background:new 0 0 332.4 332.4;" xml:space="preserve">
<style type="text/css">
	.st0{fill:url(#SVGID_1_);}
	.st1{fill:#FFFFFF;}
</style>
<linearGradient id="SVGID_1_" gradientUnits="userSpaceOnUse" x1="63.5236" y1="-11.6503" x2="268.9023" y2="344.0762">
	<stop  offset="0" style="stop-color:#00C3FF"/>
	<stop  offset="1" style="stop-color:#6423C2"/>
</linearGradient>
<path class="st0" d="M273.2,332.4h-214C26.5,332.4,0,305.9,0,273.2v-214C0,26.5,26.5,0,59.2,0h214c32.7,0,59.2,26.5,59.2,59.2v214
	C332.4,305.9,305.9,332.4,273.2,332.4z"/>
<g>
	
		<image style="overflow:visible;opacity:0.4;" width="286" height="342" xlink:href="32346CC404F38622.png"  transform="matrix(1 0 0 1 30.2181 -5.3439)">
	</image>
	<g>
		<g>
			<path class="st1" d="M90.6,54.2h74.5c46.2,0,82.2,16.4,82.2,66.2c0,47.9-35.9,69.6-82.2,69.6h-34.7v87H90.6V54.2z M161,158.4
				c30.5,0,47.1-12.8,47.1-37.9c0-25.6-16.6-34.5-47.1-34.5h-30.6v72.4H161z M186.3,155.7l69.6,121.4h-44.5l-53.8-97.6L186.3,155.7z
				"/>
		</g>
	</g>
</g>
</svg>
