<?xml version="1.0" encoding="utf-8"?>
<!-- Generator: Adobe Illustrator 24.1.0, SVG Export Plug-In . SVG Version: 6.00 Build 0)  -->
<svg version="1.1" id="Шар_1" xmlns="http://www.w3.org/2000/svg" x="0px"
     y="0px"
     viewBox="0 0 27.5 25.1" style="enable-background:new 0 0 27.5 25.1;" xml:space="preserve">
<style type="text/css">
	.st0{fill:#6446b4;}
</style>
    <path class="st0" d="M0.6,15.3L0.6,15.3c0.8-0.8,2-0.8,2.8,0l6.3,6.3c0.8,0.8,0.8,2,0,2.8l0,0c-0.8,0.8-2,0.8-2.8,0l-6.3-6.3
	C-0.1,17.3-0.1,16.1,0.6,15.3z"/>
    <path class="st0" d="M17.5,11L17.5,11c-0.9-0.7-2.1-0.5-2.7,0.3L6.7,21.8c-0.7,0.9-0.5,2.1,0.3,2.7l0,0c0.9,0.7,2.1,0.5,2.7-0.3
	l8.1-10.4C18.5,12.9,18.4,11.7,17.5,11z"/>
</svg>
