<?xml version="1.0" encoding="UTF-8"?>
<svg xmlns:xlink="http://www.w3.org/1999/xlink" width="150px" height="320px" viewBox="0 0 150 320" version="1.1"
     xmlns="http://www.w3.org/2000/svg">
    <!-- Generator: Sketch 52.2 (67145) - http://www.bohemiancoding.com/sketch -->
    <title>Group</title>
    <desc>Created with Sketch.</desc>
    <defs>
        <polygon id="path-1" points="150 0 0 130.639098 0 250 150 119.360902"></polygon>
        <linearGradient x1="50%" y1="100%" x2="50%" y2="3985.63042%" id="linearGradient-3">
            <stop stop-color="#4190FF" offset="0%"></stop>
            <stop stop-color="#4190FF" offset="100%"></stop>
        </linearGradient>
        <linearGradient x1="50%" y1="-200%" x2="50%" y2="3685.63042%" id="linearGradient-4">
            <stop stop-color="#4190FF" offset="0%"></stop>
            <stop stop-color="#4190FF" offset="100%"></stop>
        </linearGradient>
        <linearGradient x1="50%" y1="-500%" x2="50%" y2="3385.63042%" id="linearGradient-5">
            <stop stop-color="#4190FF" offset="0%"></stop>
            <stop stop-color="#4190FF" offset="100%"></stop>
        </linearGradient>
        <linearGradient x1="50%" y1="-800%" x2="50%" y2="3085.63042%" id="linearGradient-6">
            <stop stop-color="#4190FF" offset="0%"></stop>
            <stop stop-color="#4190FF" offset="100%"></stop>
        </linearGradient>
        <linearGradient x1="50%" y1="-1100%" x2="50%" y2="2785.63042%" id="linearGradient-7">
            <stop stop-color="#4190FF" offset="0%"></stop>
            <stop stop-color="#4190FF" offset="100%"></stop>
        </linearGradient>
        <linearGradient x1="50%" y1="-1400%" x2="50%" y2="2485.63042%" id="linearGradient-8">
            <stop stop-color="#4190FF" offset="0%"></stop>
            <stop stop-color="#4190FF" offset="100%"></stop>
        </linearGradient>
        <linearGradient x1="50%" y1="-1700%" x2="50%" y2="2185.63042%" id="linearGradient-9">
            <stop stop-color="#4190FF" offset="0%"></stop>
            <stop stop-color="#4190FF" offset="100%"></stop>
        </linearGradient>
        <linearGradient x1="50%" y1="-2000%" x2="50%" y2="1885.63042%" id="linearGradient-10">
            <stop stop-color="#4190FF" offset="0%"></stop>
            <stop stop-color="#4190FF" offset="100%"></stop>
        </linearGradient>
        <linearGradient x1="50%" y1="-2300%" x2="50%" y2="1585.63042%" id="linearGradient-11">
            <stop stop-color="#4190FF" offset="0%"></stop>
            <stop stop-color="#4190FF" offset="100%"></stop>
        </linearGradient>
        <linearGradient x1="50%" y1="-2600%" x2="50%" y2="1285.63042%" id="linearGradient-12">
            <stop stop-color="#4190FF" offset="0%"></stop>
            <stop stop-color="#4190FF" offset="100%"></stop>
        </linearGradient>
        <linearGradient x1="50%" y1="-2900%" x2="50%" y2="985.630416%" id="linearGradient-13">
            <stop stop-color="#4190FF" offset="0%"></stop>
            <stop stop-color="#4190FF" offset="100%"></stop>
        </linearGradient>
        <linearGradient x1="50%" y1="-3200%" x2="50%" y2="685.630416%" id="linearGradient-14">
            <stop stop-color="#4190FF" offset="0%"></stop>
            <stop stop-color="#4190FF" offset="100%"></stop>
        </linearGradient>
        <linearGradient x1="50%" y1="-3500%" x2="50%" y2="385.630416%" id="linearGradient-15">
            <stop stop-color="#4190FF" offset="0%"></stop>
            <stop stop-color="#4190FF" offset="100%"></stop>
        </linearGradient>
        <linearGradient x1="50%" y1="-3800%" x2="50%" y2="85.6304163%" id="linearGradient-16">
            <stop stop-color="#4190FF" offset="0%"></stop>
            <stop stop-color="#4190FF" offset="100%"></stop>
        </linearGradient>
    </defs>
    <g id="01-Sign-Up-/-Log-In" stroke="none" stroke-width="1" fill="none" fill-rule="evenodd">
        <g id="01-01-01-Sign-up" transform="translate(-395.000000, -352.000000)">
            <g id="Group" transform="translate(395.000000, 352.000000)">
                <g id="Group-3" transform="translate(0.000000, 51.000000)">
                    <mask id="mask-2" fill="white">
                        <use xlink:href="#path-1"></use>
                    </mask>
                    <use id="Clip-2" fill="#FFC5B6" xlink:href="#path-1"></use>
                    <path d="M0,130.639098 L0,250 L0,130.639098 Z" id="Fill-1" mask="url(#mask-2)"></path>
                </g>
                <g id="Group-29" opacity="0.198717" transform="translate(35.000000, 0.000000)">
                    <polygon id="Fill-1" fill="url(#linearGradient-3)" points="0 8 100 8 100 0 0 0"></polygon>
                    <polygon id="Fill-3" fill="url(#linearGradient-4)" points="0 32 100 32 100 24 0 24"></polygon>
                    <polygon id="Fill-5" fill="url(#linearGradient-5)" points="0 56 100 56 100 48 0 48"></polygon>
                    <polygon id="Fill-7" fill="url(#linearGradient-6)" points="0 80 100 80 100 72 0 72"></polygon>
                    <polygon id="Fill-9" fill="url(#linearGradient-7)" points="0 104 100 104 100 96 0 96"></polygon>
                    <polygon id="Fill-11" fill="url(#linearGradient-8)" points="0 128 100 128 100 120 0 120"></polygon>
                    <polygon id="Fill-13" fill="url(#linearGradient-9)" points="0 152 100 152 100 144 0 144"></polygon>
                    <polygon id="Fill-15" fill="url(#linearGradient-10)" points="0 176 100 176 100 168 0 168"></polygon>
                    <polygon id="Fill-17" fill="url(#linearGradient-11)" points="0 200 100 200 100 192 0 192"></polygon>
                    <polygon id="Fill-19" fill="url(#linearGradient-12)" points="0 224 100 224 100 216 0 216"></polygon>
                    <polygon id="Fill-21" fill="url(#linearGradient-13)" points="0 248 100 248 100 240 0 240"></polygon>
                    <polygon id="Fill-23" fill="url(#linearGradient-14)" points="0 272 100 272 100 264 0 264"></polygon>
                    <polygon id="Fill-25" fill="url(#linearGradient-15)" points="0 296 100 296 100 288 0 288"></polygon>
                    <polygon id="Fill-27" fill="url(#linearGradient-16)" points="0 320 100 320 100 312 0 312"></polygon>
                </g>
            </g>
        </g>
    </g>
</svg>
