<?xml version="1.0" encoding="utf-8"?>
<!-- Generator: Adobe Illustrator 24.1.0, SVG Export Plug-In . SVG Version: 6.00 Build 0)  -->
<svg version="1.1" id="Шар_1" xmlns="http://www.w3.org/2000/svg" x="0px"
     y="0px"
     viewBox="0 0 20 19" style="enable-background:new 0 0 20 19;" xml:space="preserve">
<style type="text/css">
	.st0{fill-rule:evenodd;clip-rule:evenodd;fill:#9C99B6;}
	.st1{fill:none;stroke:#9C99B6;stroke-width:2;stroke-linecap:round;}
</style>
    <g>
	<path class="st0" d="M14,8.8H2c-0.6,0-1,0.4-1,1C1,9.8,1,9.9,1,10l1,3.8c0.3,1.1,1,2,2,2.6v1.4c0,0.6,0.4,1,1,1s1-0.4,1-1v-1h8v1
		c0,0.6,0.4,1,1,1s1-0.4,1-1v-1.5c1-0.5,1.7-1.4,2-2.5l1-3.8c0.1-0.5-0.2-1.1-0.7-1.2c-0.1,0-0.2,0-0.3,0H14z M16,13.3
		c-0.2,0.9-1.1,1.5-2,1.5H5.9c-0.9,0-1.8-0.6-2-1.5l-0.6-2.5h13.4L16,13.3z"/>
        <path class="st1" d="M7,9.8v-5c0-1.1,0.9-2,2-2h2c1.1,0,2,0.9,2,2"/>
</g>
</svg>
