<?xml version="1.0" encoding="utf-8"?>
<!-- Generator: Adobe Illustrator 24.1.0, SVG Export Plug-In . SVG Version: 6.00 Build 0)  -->
<svg version="1.1" id="Шар_1" xmlns="http://www.w3.org/2000/svg" x="0px"
     y="0px"
     viewBox="0 0 20 17.4" style="enable-background:new 0 0 20 17.4;" xml:space="preserve">
<style type="text/css">
	.st0{fill:none;stroke:#9C99B6;stroke-width:2;}
	.st1{fill:none;stroke:#9C99B6;stroke-width:2;stroke-linecap:round;}
</style>
    <desc>Created with Sketch.</desc>
    <g id="Group-3" transform="translate(2.000000, 2.000000)">
	<path id="Rectangle-98" class="st0" d="M14,7.2H2c-0.3,0-0.5,0.1-0.7,0.3C1.1,7.7,1,7.9,1,8.2v3c0,0.3,0.1,0.5,0.3,0.7
		s0.4,0.3,0.7,0.3h12c0.3,0,0.5-0.1,0.7-0.3s0.3-0.4,0.3-0.7v-3c0-0.3-0.1-0.5-0.3-0.7C14.5,7.3,14.3,7.2,14,7.2z"/>
        <path id="Rectangle-98_1_" class="st0" d="M13,2.2H3c-0.3,0-0.5,0.1-0.7,0.3S2,2.9,2,3.2v3c0,0.3,0.1,0.5,0.3,0.7
		C2.5,7.1,2.7,7.2,3,7.2h10c0.3,0,0.5-0.1,0.7-0.3C13.9,6.7,14,6.5,14,6.2v-3c0-0.3-0.1-0.5-0.3-0.7S13.3,2.2,13,2.2z"/>
        <line id="Path-709" class="st1" x1="3" y1="12.3" x2="3" y2="14.3"/>
        <line id="Path-709-" class="st1" x1="13" y1="12.2" x2="13" y2="14.2"/>
</g>
</svg>
