<?xml version="1.0" encoding="utf-8"?>
<!-- Generator: Adobe Illustrator 24.1.0, SVG Export Plug-In . SVG Version: 6.00 Build 0)  -->
<svg version="1.1" id="Шар_1" xmlns="http://www.w3.org/2000/svg" x="0px"
     y="0px"
     viewBox="0 0 35.4 35.3" style="enable-background:new 0 0 35.4 35.3;" xml:space="preserve">
<style type="text/css">
	.st0{fill:none;stroke:#33323B;stroke-width:4;stroke-miterlimit:10;}
</style>
    <g>
	<path class="st0" d="M12.9,16.8l7.1-7c0,0,0.3-0.5,0.3-0.5c0-0.1-0.1-0.3-0.1-0.3c-0.7-0.8-1-1.7-1-2.8c0-2.3,1.9-4.2,4.2-4.2
		s4.1,1.9,4.2,4.2c0,0.7-0.1,1.8,1.7,1.7c2.3,0,4.2,1.9,4.2,4.2s-1.9,4.2-4.2,4.2c-1,0-1.9-0.3-2.6-0.9C26.4,15.2,26.2,15,26,15
		c-0.2,0-0.5,0.3-0.5,0.3l-8.1,8.1"/>
        <path class="st0" d="M21.5,19.4l-6.2,6.1c0,0-0.3,0.5-0.3,0.5c0,0.1,0.1,0.3,0.1,0.3c0.7,0.8,1,1.7,1,2.8c0,2.3-1.9,4.2-4.2,4.2
		s-4.1-1.9-4.2-4.2c0-0.7,0.1-1.8-1.7-1.7c-2.3,0-4.2-1.9-4.2-4.2s1.9-4.2,4.2-4.2c1,0,1.9,0.3,2.6,0.9c0.2,0.1,0.4,0.3,0.6,0.3
		c0.2,0,0.5-0.3,0.5-0.3l5.5-5.5"/>
</g>
</svg>
