<?xml version="1.0" encoding="utf-8"?>
<!-- Generator: Adobe Illustrator 24.1.0, SVG Export Plug-In . SVG Version: 6.00 Build 0)  -->
<svg version="1.1" id="Шар_1" xmlns="http://www.w3.org/2000/svg" x="0px"
     y="0px"
     viewBox="0 0 512 512" style="enable-background:new 0 0 512 512;" xml:space="preserve">
<style type="text/css">
	.st0{fill:#9C99B6;}
	.st1{fill:#FFFFFF;}
</style>
    <rect x="82.6" y="74.4" class="st0" width="351.9" height="359"/>
    <g>
	<path class="st1" d="M358.6,113.4c-10.7,0-20.7,4.2-28.3,11.7l-2.8,2.8l56.6,56.6l2.8-2.8c7.5-7.5,11.7-17.6,11.7-28.3
		s-4.2-20.7-11.7-28.3C379.4,117.5,369.3,113.4,358.6,113.4z"/>
        <polygon class="st1" points="120.2,391.7 177.8,375.3 136.4,333.7 	"/>
        <path class="st1" d="M256,0C114.6,0,0,114.6,0,256s114.6,256,256,256s256-114.6,256-256S397.4,0,256,0z M408.1,202.9L264,346.7
		c-5.9,5.9-15.4,5.8-21.2,0s-5.8-15.4,0-21.2l120.1-119.7l-56.6-56.6l-156,156l66.8,67c3.8,3.8,5.2,9.2,3.9,14.4
		c-1.3,5.1-5.3,9.2-10.4,10.6l-107.8,30.6c-1.4,0.4-2.7,0.6-4.1,0.6c-3.9,0-7.7-1.5-10.6-4.4c-3.8-3.8-5.3-9.4-3.9-14.7l30-107.8
		c0.7-2.5,2-4.8,3.8-6.6l191.1-191.1c13.2-13.2,30.8-20.5,49.5-20.5s36.3,7.3,49.5,20.5s20.5,30.8,20.5,49.5
		S421.3,189.7,408.1,202.9z"/>
</g>
</svg>
