<svg width="56" height="46" viewBox="0 0 56 46" xmlns="http://www.w3.org/2000/svg">
    <path d="M0 30.531C0 40.504 5.842 46 12.49 46c6.042 0 10.675-4.885 10.675-10.788 0-6.106-4.028-10.38-9.669-10.38-1.007 0-2.417.203-2.618.203.604-6.513 6.446-14.654 12.892-18.929L16.317 0C7.05 6.717 0 18.115 0 30.531zm32.23 0C32.23 40.504 38.072 46 44.72 46c6.043 0 10.877-4.885 10.877-10.788 0-6.106-4.23-10.38-9.87-10.38-1.008 0-2.418.203-2.62.203.807-6.513 6.447-14.654 12.893-18.929L48.547 0C39.28 6.717 32.23 18.115 32.23 30.531z"
          fill="#E9EAEF" fill-rule="evenodd"/>
</svg>
